<svg width="880" height="885" viewBox="0 0 880 885" fill="none" xmlns="http://www.w3.org/2000/svg">
<path d="M617.065 176.475C628.425 141.724 643.051 63.0906 588.434 15.6441L588.375 15.6102C565.612 2.62298 517.61 -24.7649 454.48 51.8901C449.714 56.4575 395.393 106.071 216.24 267.986C197.131 287.863 123.249 345.639 23.8798 495.569C11.806 511.559 -12.9753 546.307 11.001 581.394C24.8473 597.181 63.3738 606.884 75.2497 622.801C89.2305 633.767 105.934 664.181 138.144 682.818C164.32 695.609 183.116 684.295 212.744 702.341C234.407 707.306 256.425 736.123 295.343 737.766C336.73 730.757 402.739 645.95 508.072 408.61C520.384 380.869 550.604 290.771 617.065 176.475Z" fill="#FF9002"/>
<path d="M484.231 322.131C520.789 262.107 615.846 143.692 608.281 62.3984L621.935 91.7244L621.06 146.343L585.971 216.891L416.452 596.7L342.395 689.131C335.637 699.242 330.901 704.857 328.117 706.952L342.395 689.131C363.626 657.368 404.815 581.239 468.126 430.503C485.071 390.157 482.569 395.003 533.07 274.139C521.297 285.994 491.489 326.025 466.437 391.306C456.341 417.614 424.86 502.863 327.734 664.174C346.683 632.294 402.489 527.232 455.721 383.028C447.309 390.803 419.836 404.978 377.24 399.485C370.243 405.32 329.466 472.462 212.707 653.82C220.293 631.302 260.595 548.171 361.108 395.788C351.326 396.133 323.3 387.608 289.446 350.741C275.443 363.864 219.228 426.821 106.401 573.666C112.758 558.629 156.994 490.08 283.08 336.184C277.175 321.732 272.787 302.777 285.703 265.472C250.584 291.705 154.59 376.108 51.5728 503.856C52.4308 493.056 188.958 321.404 204.073 308.374C219.187 295.344 278.685 241.063 368.277 142.256L398.823 114.813L307.261 247.612C281.872 286.424 277.654 323.877 347.521 364.051C368.096 375.882 433.904 393.552 484.231 322.131Z" fill="#E54F02"/>
<path d="M536.858 6.12696C557.388 5.12344 573.541 14.0599 584.928 20.5514C610.334 42.86 619.823 72.4648 621.501 101.17C623.175 129.782 617.038 157.045 611.549 174.026C545.102 288.425 514.636 379.03 502.588 406.176C449.975 524.724 407.305 604.893 372.75 656.211C355.47 681.874 340.342 700.138 327.153 712.352C314.203 724.344 303.547 730.106 294.943 731.739C277.306 730.842 263.311 723.922 250.713 716.186C247.515 714.222 244.443 712.23 241.394 710.259C238.371 708.305 235.359 706.366 232.4 704.593C226.832 701.258 221.063 698.271 215.057 696.73C199.457 687.434 186.524 685.674 174.674 684.632C162.765 683.585 152.773 683.24 140.958 677.512C125.769 668.683 114.102 657.03 104.365 645.968C99.3569 640.279 95.2317 635.191 90.9913 630.269C87.1526 625.812 83.3584 621.664 79.5646 618.572C75.9331 613.968 70.7593 610.102 65.2994 606.731C59.5302 603.169 52.9241 599.854 46.5361 596.677C40.0456 593.449 33.7753 590.361 28.2525 587.113C22.8359 583.928 18.5704 580.826 15.7384 577.687C5.22944 562.096 5.38749 546.751 9.64856 533.109C14.0191 519.116 22.6534 507.15 28.6679 499.184L28.7788 499.037L28.8812 498.883C127.57 349.979 200.689 292.706 220.394 272.319C399.384 110.551 453.784 60.868 458.632 56.222L458.886 55.9777L459.111 55.7047C489.974 18.2297 516.318 7.13108 536.858 6.12696Z" stroke="#B03708" stroke-width="12"/>
<path d="M418.612 193.572C403.314 182.461 380.209 148.193 397.517 118.395L462.219 60.4555C478.457 40.4061 515.902 -8.89337 570.362 18.2939C629.37 47.7515 621.859 103.13 565.231 188.851C547.256 216.061 494.488 248.685 418.612 193.572Z" fill="#FBAA12"/>
<path d="M504.159 209.783C485.45 213.096 438.566 210.313 409.25 166.686C391.525 140.307 405.989 124.198 476.037 57.3159C490.378 43.6233 526.811 14.3343 566.127 30.4216C580.547 36.3217 609.252 65.8568 584.197 120.915C575.401 140.244 558.576 194.603 504.159 209.783Z" fill="#762301"/>
<path d="M504.159 209.783C485.45 213.096 438.566 210.313 409.25 166.686C409.942 155.201 489.739 94.8999 525.21 90.4164C537.066 88.9179 572.07 93.3942 584.197 120.915C575.401 140.244 558.576 194.603 504.159 209.783Z" fill="#351508"/>
<path d="M879.351 220.839C881.312 182.23 874.443 97.937 805.56 64.6592L805.49 64.6411C778.664 57.6974 722.091 43.0543 678.917 138.772C675.319 144.753 633.64 210.435 495.705 425.311C481.714 450.889 422.337 530.322 362.493 710.854C354.605 730.518 338.948 772.843 373.138 802.002C391.643 814.273 433.645 813.497 450.175 826.447C467.481 833.763 492.955 860.167 530.988 870.258C561.243 876.055 577.287 859.301 612.523 869.503C636.004 868.566 666.458 891.869 706.627 882.759C746.915 864.136 790.767 759.303 832.471 487.922C837.346 456.203 843.211 355.889 879.351 220.839Z" fill="#FF9002"/>
<path d="M784.175 406.285C804.843 334.903 869.022 187.725 838.771 106.868L860.832 133.008L875.077 188.984L858.824 270.698L791.11 705.246L741.16 820.09C737.066 832.281 733.789 839.323 731.529 842.233L741.16 820.09C754.021 781.795 774.951 692.695 797.777 521.333C803.886 475.468 802.676 481.106 820.71 343.777C811.983 359.137 792.66 408.248 785.189 481.804C782.179 511.448 773.683 607.163 719.282 798.687C729.782 760.904 757.609 638.229 771.96 476.328C765.532 486.592 741.427 508.672 696.438 514.872C690.916 522.765 667.915 602.58 599.036 820.002C600.537 794.922 618.621 698.924 678.952 515.57C669.067 518.634 638.105 517.702 593.342 489.466C582.69 506.738 542.777 586.561 468.344 767.675C470.664 750.569 496.804 668.36 582.812 476.376C572.781 463.265 563.049 445.139 565.89 403.493C537.324 439.995 462.763 552.727 393.048 711.635C390.931 700.377 482.671 487.38 494.483 469.895C506.294 452.41 551.963 380.53 615.999 254.875L639.563 218.405L582.938 379.293C567.787 425.935 573.863 465.321 656.292 486.952C680.566 493.322 752.615 493.113 784.175 406.285Z" fill="#E54F02"/>
<path d="M750.188 68.9153C770.981 62.1616 790.044 66.8455 803.465 70.3149C835.698 86.0876 853.642 113.765 863.334 142.658C872.995 171.462 874.286 201.048 873.387 219.921C837.287 355.068 831.317 455.935 826.541 487.011C805.71 622.569 784.383 716.224 763.337 778.196C752.812 809.186 742.426 832.043 732.334 848.193C722.412 864.069 713.08 872.965 704.661 877.049C686.315 881.052 670.037 877.851 655.006 873.439C651.194 872.32 647.504 871.137 643.848 869.971C640.221 868.815 636.615 867.671 633.11 866.684C626.497 864.822 619.803 863.382 613.283 863.481C594.836 858.323 581.197 860.104 568.828 862.323C556.4 864.553 546.041 866.988 532.319 864.402C514.313 859.589 499.135 850.906 486.116 842.306C479.431 837.89 473.791 833.827 468.115 829.989C462.951 826.498 457.938 823.325 453.231 821.235C448.294 817.567 441.976 815.063 435.47 813.137C428.613 811.106 420.969 809.556 413.567 808.085C406.054 806.591 398.787 805.177 392.237 803.389C385.804 801.634 380.545 799.635 376.739 797.182C361.583 784.1 357.462 768.28 358.032 753.092C358.616 737.537 364.131 722.885 368.062 713.088L368.13 712.917L368.188 712.743C427.658 533.338 486.445 454.595 500.86 428.385C638.667 213.709 680.403 147.943 684.059 141.864L684.241 141.561L684.387 141.238C705.519 94.3867 729.386 75.6719 750.188 68.9153Z" stroke="#B03708" stroke-width="12"/>
<path d="M681.585 293.288C662.895 286.19 629.82 257.625 639.223 222.422L689.188 145.367C700.201 120.408 724.747 59.7234 787.854 72.3718C856.231 86.0765 863.916 144.667 829.889 247.834C819.089 280.581 774.285 328.497 681.585 293.288Z" fill="#FBAA12"/>
<path d="M773.372 286.12C755.199 294.685 706.586 304.84 664.58 268.447C639.182 246.443 649.477 225.995 702.418 138.334C713.257 120.387 742.317 80.4018 786.894 85.9209C803.243 87.9451 840.721 110.127 830.413 173.254C826.795 195.416 824.693 255.548 773.372 286.12Z" fill="#762301"/>
<path d="M773.372 286.12C755.199 294.685 706.586 304.84 664.58 268.447C662.103 256.537 726.816 172.888 761.769 158.481C773.452 153.666 810.411 148.532 830.413 173.254C826.795 195.416 824.693 255.548 773.372 286.12Z" fill="#351508"/>
</svg>
