<svg width="921" height="959" viewBox="0 0 921 959" fill="none" xmlns="http://www.w3.org/2000/svg">
<path d="M427.04 97.5C430.334 104.644 433.616 110.811 436.985 115.692C441.071 121.613 448.85 130.978 461.112 130.934C473.506 130.888 481.13 121.305 485.054 115.325C488.22 110.502 491.253 104.459 494.257 97.5H620.374C627.418 113.187 633.729 131.333 640.151 151.54C647.634 175.086 655.546 202.376 664.488 229.381C682.606 284.097 706.686 343.343 748.982 394.675C790.423 444.969 829.39 483.819 858.558 545.034C887.425 605.616 906.767 688.865 904.337 825.887C902.763 853.089 893.722 888.857 870.431 913.332C848.348 936.538 810.571 952.563 744.194 935.728C683.563 912.408 576.276 864.186 461.43 861.098L461 861.086L460.57 861.098C345.729 864.185 237.967 912.399 177.307 935.728C110.929 952.564 73.1521 936.538 51.0688 913.332C27.778 888.857 18.736 853.089 17.1615 825.887C14.7316 688.865 34.0751 605.616 62.9418 545.034C92.1102 483.819 131.078 444.969 172.519 394.675C214.792 343.37 239.122 284.155 257.492 229.443C266.57 202.404 274.586 175.186 282.175 151.594C288.679 131.374 295.052 113.209 302.121 97.5H427.04Z" fill="#64D3E4" stroke="#213442" stroke-width="32"/>
<path d="M450 398.275C457.966 380.607 462.552 379.686 471 398.275C462.557 295.909 457.962 297.243 450 398.275Z" fill="#46BAC9"/>
<path d="M402.484 440.12C391.387 447.897 385.04 449.188 373.532 446.887C328.412 534.429 328.012 619.172 335.852 777.749C340.379 602.583 350.187 519.024 402.484 440.12Z" fill="#46BAC9"/>
<path d="M518.314 440.12C529.411 447.897 535.758 449.188 547.265 446.887C592.386 534.429 592.786 619.172 584.946 777.749C580.419 602.583 570.611 519.024 518.314 440.12Z" fill="#46BAC9"/>
<path d="M107 627.5C119.974 572.495 172.401 440.94 281.5 332.5L299.951 367.46C300.679 368.429 300.784 369.082 300.5 368.5L299.951 367.46C294.786 360.583 258.27 337.797 107 627.5Z" fill="#46BAC9"/>
<path d="M813.646 627.5C800.672 572.495 748.245 440.94 639.146 332.5L620.695 367.46C619.967 368.429 619.862 369.082 620.146 368.5L620.695 367.46C625.859 360.583 662.375 337.797 813.646 627.5Z" fill="#46BAC9"/>
<path d="M281.315 329.5C282.964 360.527 311.298 431.143 387.315 432C485.331 433.105 476.088 307.373 460.032 88.9595L459.815 86C457.909 60.0678 430.627 1.2517e-05 362.315 0C307.211 -1.00967e-05 265.722 36.1989 281.315 329.5Z" fill="#415B68"/>
<path d="M297.627 331.5C352.081 394.154 426.308 358.177 451.127 328C452.627 452.5 324.127 451 297.627 331.5Z" fill="#2F5A6D"/>
<path d="M362.315 9C349.483 9 338.661 11.1155 329.38 17.6123C320.077 24.1249 311.115 35.892 303.837 57.6201C289.126 101.543 282.505 182.361 290.302 329.022C291.031 342.724 297.883 366.371 313.538 386.546C328.937 406.391 352.594 422.608 387.417 423.001C409.755 423.253 424.779 416.4 435.4 403.784C446.437 390.675 453.65 370.259 457.532 341.592C465.308 284.162 459.119 199.289 451.057 89.6191L450.839 86.6602C450.033 75.6945 443.536 55.9912 429.125 39.1211C414.991 22.5769 393.483 9.00001 362.315 9Z" stroke="#213442" stroke-width="18"/>
<path d="M365.129 32.5001C335.627 36.5001 323.585 44.0002 316.129 117.5C313.288 145.5 318.672 179.065 382.629 179.5C430.925 179.829 434.84 134.374 430.627 103.5C424.691 60.0001 394.631 28.5 365.129 32.5001Z" fill="#152630"/>
<path d="M378.627 94.0001C360.637 93.3841 313.127 115.5 336.627 159.5C350.627 170 421.127 196.5 421.127 121.5C421.127 114.5 419.053 95.3845 378.627 94.0001Z" fill="#1F4051"/>
<path d="M365.935 38.4458C378.194 36.7837 391.269 42.4182 402.327 54.2788C413.345 66.0973 421.865 83.665 424.682 104.311C426.734 119.348 426.658 137.141 420.801 150.843C417.923 157.577 413.715 163.174 407.783 167.103C401.857 171.028 393.777 173.576 382.669 173.5C351.599 173.289 336.511 165.049 329.125 155.23C321.561 145.174 320.714 131.755 322.098 118.106C325.839 81.2324 330.657 62.4147 337.37 52.2426C343.474 42.9925 351.494 40.4038 365.935 38.4458Z" stroke="#152630" stroke-width="12"/>
<path d="M640.411 329.5C638.762 360.527 610.428 431.143 534.411 432C436.395 433.106 445.638 307.373 461.693 88.9596L461.911 86.0001C463.817 60.068 491.099 0.000134587 559.411 0.00012207C614.514 0.000111974 656.004 36.199 640.411 329.5Z" fill="#415B68"/>
<path d="M624.099 331.5C569.645 394.154 495.418 358.177 470.599 328C469.099 452.5 597.599 451 624.099 331.5Z" fill="#2F5A6D"/>
<path d="M559.411 9.00012C572.243 9.00012 583.065 11.1156 592.346 17.6124C601.649 24.125 610.611 35.8921 617.889 57.6202C632.6 101.543 639.221 182.361 631.424 329.023C630.695 342.724 623.843 366.371 608.188 386.546C592.789 406.391 569.132 422.608 534.309 423.001C511.971 423.253 496.947 416.4 486.326 403.784C475.289 390.675 468.076 370.259 464.194 341.592C456.418 284.162 462.607 199.289 470.669 89.6193L470.887 86.6603C471.693 75.6946 478.19 55.9913 492.601 39.1212C506.735 22.577 528.243 9.00013 559.411 9.00012Z" stroke="#213442" stroke-width="18"/>
<path d="M556.597 32.5002C586.099 36.5003 598.141 44.0003 605.597 117.5C608.438 145.5 603.054 179.065 539.097 179.5C490.801 179.829 486.886 134.374 491.099 103.5C497.035 60.0002 527.095 28.5001 556.597 32.5002Z" fill="#152630"/>
<path d="M543.099 94.0002C561.089 93.3842 608.599 115.5 585.099 159.5C571.099 170 500.599 196.5 500.599 121.5C500.599 114.5 502.673 95.3846 543.099 94.0002Z" fill="#1F4051"/>
<path d="M555.791 38.4459C543.532 36.7838 530.457 42.4183 519.399 54.2789C508.381 66.0975 499.861 83.6651 497.044 104.311C494.992 119.348 495.068 137.141 500.925 150.843C503.803 157.577 508.011 163.174 513.943 167.103C519.869 171.028 527.949 173.576 539.057 173.501C570.127 173.289 585.215 165.05 592.601 155.23C600.165 145.174 601.012 131.755 599.628 118.106C595.887 81.2325 591.069 62.4149 584.356 52.2428C578.252 42.9927 570.232 40.4039 555.791 38.4459Z" stroke="#152630" stroke-width="12"/>
<path d="M471 57C464.5 72 459 72 451 57L461.5 106L471 57Z" fill="#213442"/>
</svg>
